<svg width="49" height="49" viewBox="0 0 49 49" fill="none" xmlns="http://www.w3.org/2000/svg">
<path d="M36.1455 0.695312H13.8407C6.74143 0.695312 0.986328 6.42787 0.986328 13.4993V35.7167C0.986328 42.7882 6.74143 48.5207 13.8407 48.5207H36.1455C43.2447 48.5207 48.9998 42.7882 48.9998 35.7167V13.4993C48.9998 6.42787 43.2447 0.695312 36.1455 0.695312Z" fill="#00B7DE"/>
<path d="M10.2473 23.9504L16.6322 26.1112L19.1036 33.3178C19.2617 33.7794 19.8842 33.95 20.2973 33.6437L23.8564 31.0129C24.2295 30.7372 24.7609 30.7235 25.1508 30.9801L31.5701 35.206C32.0121 35.4973 32.6382 35.2777 32.749 34.7934L37.4515 14.2833C37.5725 13.7544 36.9993 13.3131 36.4438 13.5079L10.2398 22.6738C9.59311 22.8999 9.59875 23.7301 10.2473 23.9504ZM18.7053 24.961L31.1839 17.9922C31.4082 17.8673 31.6389 18.1423 31.4463 18.3043L21.1479 26.9843C20.7859 27.2898 20.5524 27.6987 20.4862 28.1425L20.1354 30.4998C20.089 30.8146 19.6013 30.8458 19.5056 30.5412L18.1564 26.2426C18.0018 25.7523 18.227 25.2286 18.7053 24.961Z" fill="white"/>
</svg>
